        <svg 
            xmlns="http://www.w3.org/2000/svg"
            viewBox="-12 -10 82 60"
            height="20"
            width="25"
            fill="white"
            strokeWidth="2"
        >
          <path d="M40 30a9.88 9.88 0 0 0-4.613 1.16l-2.797-2.797a6.918 6.918 0 0 0 0-4.709l2.804-2.81A9.888 9.888 0 0 0 40 22c5.514 0 10-4.486 10-10S45.514 2 40 2 30 6.486 30 12c0 1.62.414 3.19 1.157 4.6l-2.812 2.813a7.08 7.08 0 0 0-4.7-.003l-2.803-2.8A9.887 9.887 0 0 0 22 12c0-5.514-4.486-10-10-10S2 6.486 2 12s4.486 10 10 10a9.85 9.85 0 0 0 4.6-1.158l2.812 2.813a6.965 6.965 0 0 0-.003 4.693l-2.81 2.81A9.863 9.863 0 0 0 12 30C6.486 30 2 34.486 2 40s4.486 10 10 10 10-4.486 10-10a9.862 9.862 0 0 0-1.161-4.607l2.804-2.807a6.977 6.977 0 0 0 4.703.004l2.806 2.81A9.929 9.929 0 0 0 30 40c0 5.514 4.486 10 10 10s10-4.486 10-10-4.486-10-10-10zM12 20c-4.411 0-8-3.589-8-8s3.589-8 8-8 8 3.589 8 8c0 1.083-.227 2.14-.647 3.122l-3.26-3.257a2.954 2.954 0 0 0-1.162-.708c-.368-1.274-1.532-2.222-2.929-2.222a3.05 3.05 0 0 0-2.471 1.274A3.034 3.034 0 0 0 8.94 12a3.05 3.05 0 0 0 2.194 2.915c.142.434.377.84.717 1.18l3.26 3.26A7.89 7.89 0 0 1 12 20zm8 20c0 4.411-3.589 8-8 8s-8-3.589-8-8 3.589-8 8-8c1.078 0 2.13.226 3.11.647l-3.258 3.258a2.96 2.96 0 0 0-.715 1.171c-.498.15-.95.41-1.307.772A3.052 3.052 0 0 0 8.94 40 3.063 3.063 0 0 0 12 43.06c1.308 0 2.422-.836 2.857-2.011.022-.06.04-.124.059-.186a2.895 2.895 0 0 0 1.176-.718l3.26-3.263c.42.98.648 2.036.648 3.118zm12-28c0-4.411 3.589-8 8-8s8 3.589 8 8-3.589 8-8 8a7.911 7.911 0 0 1-3.119-.647l3.251-3.258c.338-.332.57-.735.711-1.168a3.054 3.054 0 0 0 1.322-.767 3.05 3.05 0 0 0 .897-2.165c0-1.68-1.37-3.06-3.06-3.06a3.05 3.05 0 0 0-2.928 2.219c-.44.144-.848.377-1.182.711l-3.246 3.247A7.895 7.895 0 0 1 32 12zm8 36c-4.411 0-8-3.589-8-8 0-1.076.225-2.129.642-3.11l3.25 3.255c.333.333.746.57 1.186.714l.009.027a3.029 3.029 0 0 0 1.029 1.504c.522.413 1.171.67 1.884.67a3.05 3.05 0 0 0 2.165-.9 3.05 3.05 0 0 0 .897-2.165c0-1.389-.941-2.56-2.22-2.928a2.88 2.88 0 0 0-.71-1.162l-3.257-3.257A7.917 7.917 0 0 1 40 32c4.411 0 8 3.589 8 8s-3.589 8-8 8z" />
        </svg>