<svg
    xmlns="http://www.w3.org/2000/svg"
    fillRule="evenodd"
    strokeLinejoin="round"
    strokeWidth="1"
    clipRule="evenodd"
    viewBox="0 -3 32 54"
    fill="white"
>
    <path
        fillRule="nonzero"
        d="M16.054,2.986c4.725,0.022 9.327,2.784 11.534,7.059c2.175,4.211 1.83,9.6 -0.983,13.529c-2.859,3.994 -8.094,6.155 -13.016,5.227c-5.246,-0.99 -9.68,-5.455 -10.465,-10.936c-0.685,-4.778 1.507,-9.881 5.609,-12.654c2.1,-1.418 4.61,-2.196 7.153,-2.225c0.056,0 0.112,0 0.168,0Zm-0.078,2.003c-2.757,0.013 -5.485,1.096 -7.491,2.975c-3.369,3.155 -4.474,8.488 -2.418,12.785c1.772,3.704 5.718,6.261 9.909,6.274c5.15,0.016 10.135,-3.938 10.936,-9.408c0.507,-3.46 -0.751,-7.137 -3.277,-9.56c-2,-1.918 -4.731,-3.035 -7.516,-3.066c-0.048,0 -0.095,0 -0.143,0Zm0.036,18.024c0.556,0 1.008,0.451 1.008,1.005c0,0.555 -0.452,1.006 -1.008,1.006c-0.556,0 -1.008,-0.451 -1.008,-1.006c0,-0.554 0.452,-1.005 1.008,-1.005Zm0.032,-16.021c2.146,0.02 4.179,1.55 4.777,3.608c0.131,0.449 0.198,0.916 0.199,1.384c0,0 0,-0.002 0,-0.001c0.029,1.689 -1.083,3.343 -2.643,4.172c-0.018,0.012 -0.037,0.023 -0.055,0.035c-0.797,0.525 -1.304,1.454 -1.308,2.418l0,1.404c-0.003,0.061 -0.001,0.076 -0.01,0.137c-0.094,0.688 -1.038,1.117 -1.624,0.64c-0.195,-0.158 -0.326,-0.392 -0.36,-0.64c-0.009,-0.061 -0.007,-0.076 -0.01,-0.137l0,-1.408c0.008,-1.662 0.905,-3.283 2.318,-4.155c0.448,-0.277 0.856,-0.536 1.147,-0.922c0.325,-0.431 0.539,-0.967 0.542,-1.494c0.006,-1.03 -0.396,-1.716 -0.972,-2.245c-0.975,-0.898 -2.573,-1.031 -3.683,-0.301c-0.827,0.544 -1.351,1.509 -1.355,2.512c0,0 -0.187,0.949 -0.933,1c-0.564,0.039 -1.077,-0.467 -1.069,-1.066c0,-0.064 0.002,-0.128 0.006,-0.192c0.127,-2.505 2.343,-4.741 4.997,-4.749c0.012,0 0.024,0 0.036,0Z"
    />
</svg>