<svg
    xmlns="http://www.w3.org/2000/svg"
    viewBox="-12 0 125 138"
    fill="white"
>
    <path d="m72.447 34.967-9.817.816-7.482-6.635a1.464 1.464 0 0 0-.148-.115 6.332 6.332 0 0 0-3.6-1.118H37.437a6.374 6.374 0 0 0-3.06.785l-11.288 6.2a5.534 5.534 0 0 0-2.784 3.847l-2.031 10.86A4.225 4.225 0 0 0 19 52.879a4.288 4.288 0 0 0 7.6-1.451l2.111-8.443 6.677-2.273V56.2a6.368 6.368 0 0 0 1.687 4.326l6.462 7.033c-1.453 3.039-3.789 8.986-5.8 11.659l-6.47 10.159a2.121 2.121 0 0 1-3.739-1.977l6.743-15.721 2.622-8.468a1.5 1.5 0 0 0-2.871-.879L31.6 70.24l-6.832 15.978c-2.388 5.77 5.575 9.976 9.031 4.772l6.436-10.109c2.02-2.7 4.064-7.846 5.508-10.922l3.357 3.656 2.866 16.352a5.492 5.492 0 0 0 5.5 4.554c0 .015 14.4 0 14.412 0a1.5 1.5 0 0 0 0-3h-9.587a5.52 5.52 0 0 0 .6-2.89L61.686 71.4a6.767 6.767 0 0 0-1.069-3.038L52.864 56.5a5.249 5.249 0 0 1-.859-2.882V40.691l7.1 4.687a7.279 7.279 0 0 0 5.923.947l8.988-2.454c5.24-1.526 3.902-9.291-1.569-8.904zm.781 6.007-8.988 2.455a4.282 4.282 0 0 1-3.479-.556l-9.43-6.223A1.5 1.5 0 0 0 49 37.9v15.718a8.241 8.241 0 0 0 1.348 4.524l7.754 11.863a3.728 3.728 0 0 1 .59 1.647l1.2 17.19a2.483 2.483 0 0 1-.668 1.885 2.523 2.523 0 0 1-4.3-1.278l-2.941-16.785a1.5 1.5 0 0 0-.374-.756L39.283 58.492a3.384 3.384 0 0 1-.894-2.295V38.615a1.51 1.51 0 0 0-1.5-1.5 1.487 1.487 0 0 0-.483.08l-9.436 3.214a1.5 1.5 0 0 0-.97 1.056L23.688 50.7a1.262 1.262 0 0 1-2.463-.538L23.256 39.3a2.535 2.535 0 0 1 1.279-1.768l11.287-6.2a3.38 3.38 0 0 1 1.615-.414H51.4a3.34 3.34 0 0 1 1.829.543l7.886 6.995a1.523 1.523 0 0 0 1.12.373l10.457-.869a1.539 1.539 0 0 1 .536 3.014zM45.342 25.5a10.024 10.024 0 0 0 10.013-10.011c-.55-13.285-19.479-13.28-20.026 0A10.024 10.024 0 0 0 45.342 25.5zm0-17.024a7.019 7.019 0 0 1 7.011 7.012c-.33 9.279-13.695 9.275-14.023 0a7.02 7.02 0 0 1 7.012-7.011zM80.3 91.523h-3.221a1.5 1.5 0 0 0 0 3H80.3a1.5 1.5 0 0 0 0-3z" />
</svg>